<svg xmlns="http://www.w3.org/2000/svg" xmlns:xlink="http://www.w3.org/1999/xlink" width="491" zoomAndPan="magnify" viewBox="0 0 368.25 230.249992" height="307" preserveAspectRatio="xMidYMid meet" version="1.0"><defs><clipPath id="c88ac8f84e"><path d="M 0.222656 0 L 344 0 L 344 229.503906 L 0.222656 229.503906 Z M 0.222656 0 " clip-rule="nonzero"/></clipPath><clipPath id="5ca6d2b192"><path d="M 255 180 L 367.277344 180 L 367.277344 223 L 255 223 Z M 255 180 " clip-rule="nonzero"/></clipPath><clipPath id="72bd6aaeb1"><path d="M 0.222656 0 L 344 0 L 344 229.503906 L 0.222656 229.503906 Z M 0.222656 0 " clip-rule="nonzero"/></clipPath><clipPath id="9926bbfd1f"><path d="M 0.222656 0 L 367.277344 0 L 367.277344 229.503906 L 0.222656 229.503906 Z M 0.222656 0 " clip-rule="nonzero"/></clipPath></defs><g clip-path="url(#c88ac8f84e)"><path stroke-linecap="round" transform="matrix(0.611069, -0.430636, 0.430636, 0.611069, 0.764031, 194.311632)" fill="none" stroke-linejoin="miter" d="M 28.501182 28.499452 L 145.931661 28.498665 " stroke="#345c5b" stroke-width="57" stroke-opacity="1" stroke-miterlimit="4"/></g><g clip-path="url(#5ca6d2b192)"><path stroke-linecap="round" transform="matrix(0.747565, 0, 0, 0.747565, 255.079413, 180.210384)" fill="none" stroke-linejoin="miter" d="M 28.502283 28.499522 L 121.387198 28.499522 " stroke="#345c5b" stroke-width="57" stroke-opacity="1" stroke-miterlimit="4"/></g><g clip-path="url(#72bd6aaeb1)"><path stroke-linecap="round" transform="matrix(0.618625, 0.41971, -0.41971, 0.618625, 24.147012, 3.021666)" fill="none" stroke-linejoin="miter" d="M 28.499641 28.498745 L 145.178691 28.500893 " stroke="#345c5b" stroke-width="57" stroke-opacity="1" stroke-miterlimit="4"/></g><g clip-path="url(#9926bbfd1f)"><path stroke-linecap="round" transform="matrix(0.606919, 0.436466, -0.436466, 0.606919, 104.537279, 0.00173928)" fill="none" stroke-linejoin="miter" d="M 28.49933 28.500601 L 146.197749 28.500211 " stroke="#ffb800" stroke-width="57" stroke-opacity="1" stroke-miterlimit="4"/><path stroke-linecap="round" transform="matrix(0.607675, 0.435412, -0.435412, 0.607675, 191.352368, 1.607632)" fill="none" stroke-linejoin="miter" d="M 28.500087 28.500438 L 146.617757 28.500072 " stroke="#ffb800" stroke-width="57" stroke-opacity="1" stroke-miterlimit="4"/></g><path stroke-linecap="round" transform="matrix(0, -0.747565, 0.747565, 0, 8.004315, 222.669894)" fill="none" stroke-linejoin="miter" d="M 28.501356 28.498234 L 254.296977 28.498234 " stroke="#345c5b" stroke-width="57" stroke-opacity="1" stroke-miterlimit="4"/><path stroke-linecap="round" transform="matrix(0, -0.747565, 0.747565, 0, 86.930631, 222.669894)" fill="none" stroke-linejoin="miter" d="M 28.501356 28.497519 L 254.296977 28.497519 " stroke="#ffb51a" stroke-width="57" stroke-opacity="1" stroke-miterlimit="4"/><path stroke-linecap="round" transform="matrix(0, -0.747565, 0.747565, 0, 173.56358, 222.669894)" fill="none" stroke-linejoin="miter" d="M 28.501356 28.502561 L 254.296977 28.502561 " stroke="#ffb800" stroke-width="57" stroke-opacity="1" stroke-miterlimit="4"/><path stroke-linecap="round" transform="matrix(0, -0.747565, 0.747565, 0, 255.209271, 222.669894)" fill="none" stroke-linejoin="miter" d="M 28.501356 28.501009 L 254.296977 28.501009 " stroke="#345c5b" stroke-width="57" stroke-opacity="1" stroke-miterlimit="4"/></svg>