<svg xmlns="http://www.w3.org/2000/svg" xmlns:xlink="http://www.w3.org/1999/xlink" width="469" zoomAndPan="magnify" viewBox="0 0 351.75 89.999999" height="120" preserveAspectRatio="xMidYMid meet" version="1.0"><defs><g/><clipPath id="7b2878389a"><path d="M 0 0.03125 L 134 0.03125 L 134 89.96875 L 0 89.96875 Z M 0 0.03125 " clip-rule="nonzero"/></clipPath><clipPath id="2130f00f51"><path d="M 0 0.03125 L 134 0.03125 L 134 89.96875 L 0 89.96875 Z M 0 0.03125 " clip-rule="nonzero"/></clipPath><clipPath id="dd58ee3c09"><path d="M 0 0.03125 L 164 0.03125 L 164 89.96875 L 0 89.96875 Z M 0 0.03125 " clip-rule="nonzero"/></clipPath><clipPath id="981e6e5a1b"><path d="M 0 0.03125 L 199 0.03125 L 199 89.96875 L 0 89.96875 Z M 0 0.03125 " clip-rule="nonzero"/></clipPath></defs><g fill="#000000" fill-opacity="1"><g transform="translate(152.545257, 53.722467)"><g><path d="M 4.265625 -19.109375 L 12.5625 -19.109375 C 14.519531 -19.109375 16.21875 -18.785156 17.65625 -18.140625 C 19.09375 -17.492188 20.195312 -16.566406 20.96875 -15.359375 C 21.75 -14.148438 22.140625 -12.722656 22.140625 -11.078125 C 22.140625 -8.859375 21.632812 -6.910156 20.625 -5.234375 C 19.613281 -3.566406 18.207031 -2.273438 16.40625 -1.359375 C 14.601562 -0.453125 12.535156 0 10.203125 0 L 0.4375 0 Z M 10.375 -4.3125 C 11.6875 -4.3125 12.816406 -4.585938 13.765625 -5.140625 C 14.722656 -5.703125 15.445312 -6.46875 15.9375 -7.4375 C 16.425781 -8.414062 16.671875 -9.519531 16.671875 -10.75 C 16.671875 -12.039062 16.269531 -13.035156 15.46875 -13.734375 C 14.675781 -14.441406 13.503906 -14.796875 11.953125 -14.796875 L 8.796875 -14.796875 L 6.71875 -4.3125 Z M 10.375 -4.3125 "/></g></g></g><g fill="#000000" fill-opacity="1"><g transform="translate(175.082922, 53.722467)"><g><path d="M 3.140625 -14.796875 L 8.296875 -14.796875 L 5.34375 0 L 0.1875 0 Z M 6.453125 -16.4375 C 5.554688 -16.4375 4.832031 -16.679688 4.28125 -17.171875 C 3.738281 -17.660156 3.46875 -18.269531 3.46875 -19 C 3.46875 -19.851562 3.769531 -20.554688 4.375 -21.109375 C 4.988281 -21.671875 5.796875 -21.953125 6.796875 -21.953125 C 7.710938 -21.953125 8.441406 -21.71875 8.984375 -21.25 C 9.535156 -20.78125 9.8125 -20.1875 9.8125 -19.46875 C 9.8125 -18.570312 9.5 -17.84375 8.875 -17.28125 C 8.257812 -16.71875 7.453125 -16.4375 6.453125 -16.4375 Z M 6.453125 -16.4375 "/></g></g></g><g fill="#000000" fill-opacity="1"><g transform="translate(183.595945, 53.722467)"><g><path d="M 19.046875 -14.796875 L 16.65625 -2.734375 C 16.09375 0.128906 14.988281 2.222656 13.34375 3.546875 C 11.707031 4.878906 9.550781 5.546875 6.875 5.546875 C 3.894531 5.546875 1.492188 4.90625 -0.328125 3.625 L 2 0.03125 C 2.59375 0.5 3.332031 0.867188 4.21875 1.140625 C 5.113281 1.421875 6.046875 1.5625 7.015625 1.5625 C 8.304688 1.5625 9.285156 1.28125 9.953125 0.71875 C 10.617188 0.164062 11.0625 -0.664062 11.28125 -1.78125 L 11.375 -2.265625 C 10.269531 -1.265625 8.898438 -0.765625 7.265625 -0.765625 C 6.078125 -0.765625 4.988281 -1.019531 4 -1.53125 C 3.019531 -2.039062 2.238281 -2.769531 1.65625 -3.71875 C 1.082031 -4.675781 0.796875 -5.789062 0.796875 -7.0625 C 0.796875 -8.519531 1.148438 -9.859375 1.859375 -11.078125 C 2.566406 -12.296875 3.539062 -13.257812 4.78125 -13.96875 C 6.019531 -14.6875 7.394531 -15.046875 8.90625 -15.046875 C 10.03125 -15.046875 11.003906 -14.832031 11.828125 -14.40625 C 12.660156 -13.988281 13.265625 -13.335938 13.640625 -12.453125 L 14.109375 -14.796875 Z M 8.796875 -4.90625 C 9.828125 -4.90625 10.664062 -5.234375 11.3125 -5.890625 C 11.957031 -6.546875 12.28125 -7.40625 12.28125 -8.46875 C 12.28125 -9.1875 12.035156 -9.769531 11.546875 -10.21875 C 11.054688 -10.664062 10.382812 -10.890625 9.53125 -10.890625 C 8.488281 -10.890625 7.640625 -10.554688 6.984375 -9.890625 C 6.328125 -9.234375 6 -8.375 6 -7.3125 C 6 -6.582031 6.242188 -6 6.734375 -5.5625 C 7.234375 -5.125 7.921875 -4.90625 8.796875 -4.90625 Z M 8.796875 -4.90625 "/></g></g></g><g fill="#000000" fill-opacity="1"><g transform="translate(202.832093, 53.722467)"><g><path d="M 3.140625 -14.796875 L 8.296875 -14.796875 L 5.34375 0 L 0.1875 0 Z M 6.453125 -16.4375 C 5.554688 -16.4375 4.832031 -16.679688 4.28125 -17.171875 C 3.738281 -17.660156 3.46875 -18.269531 3.46875 -19 C 3.46875 -19.851562 3.769531 -20.554688 4.375 -21.109375 C 4.988281 -21.671875 5.796875 -21.953125 6.796875 -21.953125 C 7.710938 -21.953125 8.441406 -21.71875 8.984375 -21.25 C 9.535156 -20.78125 9.8125 -20.1875 9.8125 -19.46875 C 9.8125 -18.570312 9.5 -17.84375 8.875 -17.28125 C 8.257812 -16.71875 7.453125 -16.4375 6.453125 -16.4375 Z M 6.453125 -16.4375 "/></g></g></g><g fill="#000000" fill-opacity="1"><g transform="translate(211.345116, 53.722467)"><g><path d="M 26.421875 -19.109375 L 22.65625 0 L 17.65625 0 L 19.625 -10.078125 L 13.265625 -1.890625 L 10.890625 -1.890625 L 7.421875 -10.078125 L 5.40625 0 L 0.4375 0 L 4.265625 -19.109375 L 8.65625 -19.109375 L 13.125 -8.046875 L 21.8125 -19.109375 Z M 26.421875 -19.109375 "/></g></g></g><g fill="#000000" fill-opacity="1"><g transform="translate(237.375302, 53.722467)"><g><path d="M 18.78125 -14.796875 L 15.828125 0 L 10.921875 0 L 11.21875 -1.390625 C 10.03125 -0.296875 8.601562 0.25 6.9375 0.25 C 5.84375 0.25 4.816406 -0.015625 3.859375 -0.546875 C 2.898438 -1.085938 2.128906 -1.867188 1.546875 -2.890625 C 0.972656 -3.910156 0.6875 -5.113281 0.6875 -6.5 C 0.6875 -8.101562 1.046875 -9.550781 1.765625 -10.84375 C 2.484375 -12.144531 3.457031 -13.171875 4.6875 -13.921875 C 5.914062 -14.671875 7.253906 -15.046875 8.703125 -15.046875 C 10.847656 -15.046875 12.359375 -14.367188 13.234375 -13.015625 L 13.59375 -14.796875 Z M 8.734375 -3.9375 C 9.773438 -3.9375 10.617188 -4.316406 11.265625 -5.078125 C 11.921875 -5.835938 12.25 -6.828125 12.25 -8.046875 C 12.25 -8.921875 12 -9.613281 11.5 -10.125 C 11 -10.632812 10.3125 -10.890625 9.4375 -10.890625 C 8.40625 -10.890625 7.5625 -10.503906 6.90625 -9.734375 C 6.25 -8.972656 5.921875 -7.976562 5.921875 -6.75 C 5.921875 -5.875 6.171875 -5.1875 6.671875 -4.6875 C 7.171875 -4.1875 7.859375 -3.9375 8.734375 -3.9375 Z M 8.734375 -3.9375 "/></g></g></g><g fill="#000000" fill-opacity="1"><g transform="translate(256.338599, 53.722467)"><g><path d="M 4.265625 -19.109375 L 9.65625 -19.109375 L 6.71875 -4.28125 L 15.828125 -4.28125 L 14.953125 0 L 0.4375 0 Z M 4.265625 -19.109375 "/></g></g></g><g fill="#000000" fill-opacity="1"><g transform="translate(272.982638, 53.722467)"><g><path d="M 16.921875 -8.546875 C 16.921875 -7.835938 16.820312 -7.023438 16.625 -6.109375 L 5.765625 -6.109375 C 5.941406 -4.515625 7.054688 -3.71875 9.109375 -3.71875 C 9.765625 -3.71875 10.398438 -3.816406 11.015625 -4.015625 C 11.640625 -4.210938 12.195312 -4.507812 12.6875 -4.90625 L 14.84375 -1.671875 C 13.113281 -0.390625 11.015625 0.25 8.546875 0.25 C 6.984375 0.25 5.601562 -0.0234375 4.40625 -0.578125 C 3.21875 -1.140625 2.300781 -1.925781 1.65625 -2.9375 C 1.007812 -3.945312 0.6875 -5.132812 0.6875 -6.5 C 0.6875 -8.113281 1.0625 -9.570312 1.8125 -10.875 C 2.570312 -12.175781 3.628906 -13.195312 4.984375 -13.9375 C 6.335938 -14.675781 7.890625 -15.046875 9.640625 -15.046875 C 11.109375 -15.046875 12.394531 -14.773438 13.5 -14.234375 C 14.601562 -13.703125 15.445312 -12.941406 16.03125 -11.953125 C 16.625 -10.972656 16.921875 -9.835938 16.921875 -8.546875 Z M 9.390625 -11.359375 C 8.554688 -11.359375 7.851562 -11.132812 7.28125 -10.6875 C 6.71875 -10.238281 6.3125 -9.625 6.0625 -8.84375 L 12.140625 -8.84375 C 12.160156 -9.625 11.914062 -10.238281 11.40625 -10.6875 C 10.894531 -11.132812 10.222656 -11.359375 9.390625 -11.359375 Z M 9.390625 -11.359375 "/></g></g></g><g fill="#000000" fill-opacity="1"><g transform="translate(290.390667, 53.722467)"><g><path d="M 18.78125 -14.796875 L 15.828125 0 L 10.921875 0 L 11.21875 -1.390625 C 10.03125 -0.296875 8.601562 0.25 6.9375 0.25 C 5.84375 0.25 4.816406 -0.015625 3.859375 -0.546875 C 2.898438 -1.085938 2.128906 -1.867188 1.546875 -2.890625 C 0.972656 -3.910156 0.6875 -5.113281 0.6875 -6.5 C 0.6875 -8.101562 1.046875 -9.550781 1.765625 -10.84375 C 2.484375 -12.144531 3.457031 -13.171875 4.6875 -13.921875 C 5.914062 -14.671875 7.253906 -15.046875 8.703125 -15.046875 C 10.847656 -15.046875 12.359375 -14.367188 13.234375 -13.015625 L 13.59375 -14.796875 Z M 8.734375 -3.9375 C 9.773438 -3.9375 10.617188 -4.316406 11.265625 -5.078125 C 11.921875 -5.835938 12.25 -6.828125 12.25 -8.046875 C 12.25 -8.921875 12 -9.613281 11.5 -10.125 C 11 -10.632812 10.3125 -10.890625 9.4375 -10.890625 C 8.40625 -10.890625 7.5625 -10.503906 6.90625 -9.734375 C 6.25 -8.972656 5.921875 -7.976562 5.921875 -6.75 C 5.921875 -5.875 6.171875 -5.1875 6.671875 -4.6875 C 7.171875 -4.1875 7.859375 -3.9375 8.734375 -3.9375 Z M 8.734375 -3.9375 "/></g></g></g><g fill="#000000" fill-opacity="1"><g transform="translate(309.353964, 53.722467)"><g><path d="M 7.71875 -13.15625 C 8.957031 -14.414062 10.742188 -15.046875 13.078125 -15.046875 L 12.171875 -10.375 C 11.710938 -10.425781 11.320312 -10.453125 11 -10.453125 C 9.832031 -10.453125 8.898438 -10.175781 8.203125 -9.625 C 7.503906 -9.070312 7.035156 -8.191406 6.796875 -6.984375 L 5.375 0 L 0.1875 0 L 3.140625 -14.796875 L 8.046875 -14.796875 Z M 7.71875 -13.15625 "/></g></g></g><g fill="#000000" fill-opacity="1"><g transform="translate(321.441354, 53.722467)"><g><path d="M 12.390625 -15.046875 C 14.015625 -15.046875 15.3125 -14.613281 16.28125 -13.75 C 17.257812 -12.882812 17.75 -11.640625 17.75 -10.015625 C 17.75 -9.410156 17.679688 -8.800781 17.546875 -8.1875 L 15.90625 0 L 10.734375 0 L 12.25 -7.703125 C 12.320312 -8.003906 12.359375 -8.332031 12.359375 -8.6875 C 12.359375 -9.988281 11.675781 -10.640625 10.3125 -10.640625 C 9.40625 -10.640625 8.660156 -10.363281 8.078125 -9.8125 C 7.492188 -9.257812 7.082031 -8.425781 6.84375 -7.3125 L 5.375 0 L 0.1875 0 L 3.140625 -14.796875 L 8.046875 -14.796875 L 7.75 -13.265625 C 8.382812 -13.867188 9.101562 -14.316406 9.90625 -14.609375 C 10.707031 -14.898438 11.535156 -15.046875 12.390625 -15.046875 Z M 12.390625 -15.046875 "/></g></g></g><g clip-path="url(#7b2878389a)"><path stroke-linecap="round" transform="matrix(0.345977, -0.243819, 0.243819, 0.345977, 0.211755, 75.931225)" fill="none" stroke-linejoin="miter" d="M 19.498378 19.494713 L 100.843355 19.498863 " stroke="#312e81" stroke-width="39" stroke-opacity="1" stroke-miterlimit="4"/></g><path stroke-linecap="round" transform="matrix(0.423259, 0, 0, 0.423259, 99.50973, 70.436239)" fill="none" stroke-linejoin="miter" d="M 19.496311 19.503823 L 83.905388 19.503823 " stroke="#312e81" stroke-width="39" stroke-opacity="1" stroke-miterlimit="4"/><g clip-path="url(#2130f00f51)"><path stroke-linecap="round" transform="matrix(0.350255, 0.237633, -0.237633, 0.350255, 9.267393, 1.213639)" fill="none" stroke-linejoin="miter" d="M 19.500339 19.494986 L 100.316634 19.501937 " stroke="#312e81" stroke-width="39" stroke-opacity="1" stroke-miterlimit="4"/></g><g clip-path="url(#dd58ee3c09)"><path stroke-linecap="round" transform="matrix(0.343628, 0.24712, -0.24712, 0.343628, 40.666918, 0.0326717)" fill="none" stroke-linejoin="miter" d="M 19.494244 19.499876 L 101.024649 19.501806 " stroke="#ffb800" stroke-width="39" stroke-opacity="1" stroke-miterlimit="4"/></g><g clip-path="url(#981e6e5a1b)"><path stroke-linecap="round" transform="matrix(0.344056, 0.246523, -0.246523, 0.344056, 74.5778, 0.659295)" fill="none" stroke-linejoin="miter" d="M 19.501779 19.499287 L 101.314006 19.497375 " stroke="#ffb800" stroke-width="39" stroke-opacity="1" stroke-miterlimit="4"/></g><path stroke-linecap="round" transform="matrix(0, -0.423259, 0.423259, 0, 3.067798, 86.951344)" fill="none" stroke-linejoin="miter" d="M 19.496635 19.497555 L 175.604893 19.497555 " stroke="#312e81" stroke-width="39" stroke-opacity="1" stroke-miterlimit="4"/><path stroke-linecap="round" transform="matrix(0, -0.423259, 0.423259, 0, 33.896946, 86.951344)" fill="none" stroke-linejoin="miter" d="M 19.496635 19.504367 L 175.604893 19.504367 " stroke="#ffb800" stroke-width="39" stroke-opacity="1" stroke-miterlimit="4"/><path stroke-linecap="round" transform="matrix(0, -0.423259, 0.423259, 0, 67.736356, 86.951344)" fill="none" stroke-linejoin="miter" d="M 19.496635 19.496163 L 175.604893 19.496163 " stroke="#ffb800" stroke-width="39" stroke-opacity="1" stroke-miterlimit="4"/><path stroke-linecap="round" transform="matrix(0, -0.423259, 0.423259, 0, 99.627712, 86.951344)" fill="none" stroke-linejoin="miter" d="M 19.496635 19.503664 L 175.604893 19.503664 " stroke="#312e81" stroke-width="39" stroke-opacity="1" stroke-miterlimit="4"/></svg>